<svg width="58" height="58" viewBox="0 0 58 58" fill="none" xmlns="http://www.w3.org/2000/svg">
<rect width="58" height="58" rx="29" fill="#EB3B2E"/>
<path d="M28.9997 33.9585C32.1305 33.9585 34.6663 31.4227 34.6663 28.2918V20.5002C34.6663 17.3693 32.1305 14.8335 28.9997 14.8335C25.8688 14.8335 23.333 17.3693 23.333 20.5002V28.2918C23.333 31.4227 25.8688 33.9585 28.9997 33.9585Z" stroke="white" stroke-width="2.125" stroke-linecap="round" stroke-linejoin="round"/>
<path d="M18.1619 25.6709V28.0792C18.1619 34.0576 23.0211 38.9167 28.9994 38.9167C34.9778 38.9167 39.8369 34.0576 39.8369 28.0792V25.6709" stroke="white" stroke-width="2.125" stroke-linecap="round" stroke-linejoin="round"/>
<path d="M27.0303 21.1092C28.3053 20.6417 29.6936 20.6417 30.9686 21.1092" stroke="white" stroke-width="2.125" stroke-linecap="round" stroke-linejoin="round"/>
<path d="M27.8652 24.1126C28.6161 23.9143 29.3952 23.9143 30.1461 24.1126" stroke="white" stroke-width="2.125" stroke-linecap="round" stroke-linejoin="round"/>
<path d="M29 38.9167V43.1667" stroke="white" stroke-width="2.125" stroke-linecap="round" stroke-linejoin="round"/>
</svg>
