<svg width="109" height="68" viewBox="0 0 109 68" fill="none" xmlns="http://www.w3.org/2000/svg">
<mask id="mask0_3790_620" style="mask-type:alpha" maskUnits="userSpaceOnUse" x="0" y="0" width="109" height="68">
<path d="M9.76465 1.33154H98.8733C103.531 1.33154 107.306 5.10717 107.306 9.76465V57.5808C107.306 62.2383 103.531 66.0139 98.8733 66.0139H9.76465C5.10717 66.0139 1.33154 62.2383 1.33154 57.5808V9.76465C1.33154 5.10717 5.10717 1.33154 9.76465 1.33154Z" fill="url(#paint0_linear_3790_620)" stroke="#9F542B" stroke-width="2.66309"/>
</mask>
<g mask="url(#mask0_3790_620)">
<path d="M53.5649 29.6405C53.5649 19.7056 44.5823 11.6531 33.5013 11.6531C22.4203 11.6531 13.4377 19.7056 13.4377 29.6405C13.4377 49.5101 31.4028 65.6178 53.5649 65.6178C75.7269 65.6178 93.692 49.5101 93.692 29.6405C93.692 -0.16404 66.7443 -24.3242 33.5013 -24.3242C0.258217 -24.3242 -26.6895 -0.16404 -26.6895 29.6405C-26.6895 69.3798 9.24077 101.592 53.562 101.592C97.8833 101.592 98.0382 114.159 98.0382 74.4201" stroke="#FFF08F" stroke-opacity="0.53" stroke-width="13.9907" stroke-miterlimit="2.61313" stroke-linecap="round"/>
</g>
<path d="M75.6466 58.8053H32.9894C32.2842 58.8053 31.7178 58.2389 31.7178 57.5337V29.9395H76.9182V57.5337C76.9182 58.2389 76.3518 58.8053 75.6466 58.8053Z" fill="#FF224C"/>
<path d="M80.8374 20.5527H27.7992C27.0246 20.5527 26.4004 21.177 26.4004 21.9631V28.5293C26.4004 29.3038 27.0246 29.9396 27.7992 29.9396H80.8374C81.612 29.9396 82.2362 29.3154 82.2362 28.5293V21.9631C82.2478 21.1885 81.612 20.5527 80.8374 20.5527Z" fill="#FF224C"/>
<path d="M31.7305 32.633H76.9194V29.9395H31.7305V32.633Z" fill="#CE1D47"/>
<path d="M49.9365 58.8053H58.7107V29.9395H49.9365V58.8053Z" fill="#FFCA36"/>
<path d="M49.9365 32.633H58.7107V29.9395H49.9365V32.633Z" fill="#E8B434"/>
<path d="M48.3066 29.9396H60.3408V20.5527H48.3066V29.9396Z" fill="#FFCA36"/>
<path d="M50.9785 20.5517H57.6719V15.3496H50.9785V20.5517Z" fill="#FFCA36"/>
<path d="M50.9777 15.35C50.9777 15.35 43.267 5.54692 37.6256 9.31555C31.9842 13.0842 35.6604 20.5636 35.6604 20.5636H50.9777V15.35Z" fill="#FFCA36"/>
<path d="M57.6699 15.35C57.6699 15.35 65.3806 5.54692 71.022 9.31555C76.6634 13.0842 72.9872 20.5636 72.9872 20.5636H57.6699V15.35Z" fill="#FFCA36"/>
<path d="M75.6466 58.8053H32.9894C32.2842 58.8053 31.7178 58.2389 31.7178 57.5337V29.9395H76.9182V57.5337C76.9182 58.2389 76.3518 58.8053 75.6466 58.8053Z" stroke="black" stroke-width="1.68661" stroke-linecap="round" stroke-linejoin="round"/>
<path d="M49.9365 58.8053H58.7107V29.9395H49.9365V58.8053Z" stroke="black" stroke-width="1.68661" stroke-linecap="round" stroke-linejoin="round"/>
<path d="M48.3066 29.9396H60.3408V20.5527H48.3066V29.9396Z" stroke="black" stroke-width="1.68661" stroke-linecap="round" stroke-linejoin="round"/>
<path d="M80.8374 20.5527H27.7992C27.0246 20.5527 26.4004 21.177 26.4004 21.9631V28.5293C26.4004 29.3038 27.0246 29.9396 27.7992 29.9396H80.8374C81.612 29.9396 82.2362 29.3154 82.2362 28.5293V21.9631C82.2478 21.1885 81.612 20.5527 80.8374 20.5527Z" stroke="black" stroke-width="1.68661" stroke-linecap="round" stroke-linejoin="round"/>
<path d="M50.9785 20.5517H57.6719V15.3496H50.9785V20.5517Z" stroke="black" stroke-width="1.68661" stroke-linecap="round" stroke-linejoin="round"/>
<path d="M50.9777 15.35C50.9777 15.35 43.267 5.54692 37.6256 9.31555C31.9842 13.0842 35.6604 20.5636 35.6604 20.5636H50.9777V15.35Z" stroke="black" stroke-width="1.68661" stroke-linecap="round" stroke-linejoin="round"/>
<path d="M35.6602 20.5521C35.6602 20.5521 35.9145 15.6159 39.5097 15.35C43.1049 15.0726 50.9774 20.5521 50.9774 20.5521H35.6602Z" fill="#CE8900"/>
<path d="M72.9872 20.5521C72.9872 20.5521 72.7329 15.6159 69.1377 15.35C65.5424 15.0726 57.6699 20.5521 57.6699 20.5521H72.9872Z" fill="#CE8900"/>
<path d="M35.6602 20.5521C35.6602 20.5521 35.9145 15.6159 39.5097 15.35C43.1049 15.0726 50.9774 20.5521 50.9774 20.5521H35.6602Z" stroke="black" stroke-width="1.68661" stroke-linecap="round" stroke-linejoin="round"/>
<path d="M57.6699 15.35C57.6699 15.35 65.3806 5.54692 71.022 9.31555C76.6634 13.0842 72.9872 20.5636 72.9872 20.5636H57.6699V15.35Z" stroke="black" stroke-width="1.68661" stroke-linecap="round" stroke-linejoin="round"/>
<path d="M72.9872 20.5521C72.9872 20.5521 72.7329 15.6159 69.1377 15.35C65.5424 15.0726 57.6699 20.5521 57.6699 20.5521H72.9872Z" stroke="black" stroke-width="1.68661" stroke-linecap="round" stroke-linejoin="round"/>
<defs>
<linearGradient id="paint0_linear_3790_620" x1="144.694" y1="-2.00705e-06" x2="144.694" y2="76.1166" gradientUnits="userSpaceOnUse">
<stop stop-color="#F7F363"/>
<stop offset="1" stop-color="#EAA00E"/>
</linearGradient>
</defs>
</svg>
