<svg width="290" height="73" viewBox="0 0 290 73" fill="none" xmlns="http://www.w3.org/2000/svg">
<rect x="1.33154" y="1.33154" width="286.726" height="70.199" rx="8.43311" fill="url(#paint0_linear_3848_256)" stroke="#9F542B" stroke-width="2.66309"/>
<mask id="mask0_3848_256" style="mask-type:alpha" maskUnits="userSpaceOnUse" x="0" y="2" width="109" height="69">
<path d="M9.76465 4.13379H98.8733C103.531 4.13379 107.306 7.90942 107.306 12.5669V60.383C107.306 65.0405 103.531 68.8161 98.8733 68.8161H9.76465C5.10717 68.8161 1.33154 65.0405 1.33154 60.383V12.5669C1.33154 7.90942 5.10717 4.13379 9.76465 4.13379Z" fill="url(#paint1_linear_3848_256)" stroke="#9F542B" stroke-width="2.66309"/>
</mask>
<g mask="url(#mask0_3848_256)">
<path d="M53.5644 32.4427C53.5644 22.5079 44.5818 14.4553 33.5008 14.4553C22.4198 14.4553 13.4372 22.5079 13.4372 32.4427C13.4372 52.3124 31.4023 68.42 53.5644 68.42C75.7264 68.42 93.6915 52.3124 93.6915 32.4427C93.6915 2.63821 66.7439 -21.522 33.5008 -21.522C0.257729 -21.522 -26.6899 2.63821 -26.6899 32.4427C-26.6899 72.182 9.24028 104.395 53.5616 104.395C97.8828 104.395 98.0377 116.962 98.0377 77.2224" stroke="#FFF08F" stroke-opacity="0.53" stroke-width="13.9907" stroke-miterlimit="2.61313" stroke-linecap="round"/>
</g>
<path d="M75.6466 61.6071H32.9894C32.2842 61.6071 31.7178 61.0406 31.7178 60.3354V32.7412H76.9182V60.3354C76.9182 61.0406 76.3518 61.6071 75.6466 61.6071Z" fill="#FF224C"/>
<path d="M80.8374 23.3545H27.7992C27.0246 23.3545 26.4004 23.9787 26.4004 24.7648V31.331C26.4004 32.1056 27.0246 32.7414 27.7992 32.7414H80.8374C81.612 32.7414 82.2362 32.1171 82.2362 31.331V24.7648C82.2478 23.9903 81.612 23.3545 80.8374 23.3545Z" fill="#FF224C"/>
<path d="M31.73 35.4347H76.9189V32.7412H31.73V35.4347Z" fill="#CE1D47"/>
<path d="M49.937 61.6071H58.7112V32.7412H49.937V61.6071Z" fill="#FFCA36"/>
<path d="M49.937 35.4347H58.7112V32.7412H49.937V35.4347Z" fill="#E8B434"/>
<path d="M48.3071 32.7414H60.3413V23.3545H48.3071V32.7414Z" fill="#FFCA36"/>
<path d="M50.978 23.3544H57.6714V18.1523H50.978V23.3544Z" fill="#FFCA36"/>
<path d="M50.9777 18.1522C50.9777 18.1522 43.267 8.34916 37.6256 12.1178C31.9842 15.8864 35.6604 23.3659 35.6604 23.3659H50.9777V18.1522Z" fill="#FFCA36"/>
<path d="M57.6699 18.1522C57.6699 18.1522 65.3806 8.34916 71.022 12.1178C76.6634 15.8864 72.9872 23.3659 72.9872 23.3659H57.6699V18.1522Z" fill="#FFCA36"/>
<path d="M75.6466 61.6071H32.9894C32.2842 61.6071 31.7178 61.0406 31.7178 60.3354V32.7412H76.9182V60.3354C76.9182 61.0406 76.3518 61.6071 75.6466 61.6071Z" stroke="black" stroke-width="1.68661" stroke-linecap="round" stroke-linejoin="round"/>
<path d="M49.937 61.6071H58.7112V32.7412H49.937V61.6071Z" stroke="black" stroke-width="1.68661" stroke-linecap="round" stroke-linejoin="round"/>
<path d="M48.3071 32.7414H60.3413V23.3545H48.3071V32.7414Z" stroke="black" stroke-width="1.68661" stroke-linecap="round" stroke-linejoin="round"/>
<path d="M80.8374 23.3545H27.7992C27.0246 23.3545 26.4004 23.9787 26.4004 24.7648V31.331C26.4004 32.1056 27.0246 32.7414 27.7992 32.7414H80.8374C81.612 32.7414 82.2362 32.1171 82.2362 31.331V24.7648C82.2478 23.9903 81.612 23.3545 80.8374 23.3545Z" stroke="black" stroke-width="1.68661" stroke-linecap="round" stroke-linejoin="round"/>
<path d="M50.978 23.3544H57.6714V18.1523H50.978V23.3544Z" stroke="black" stroke-width="1.68661" stroke-linecap="round" stroke-linejoin="round"/>
<path d="M50.9777 18.1522C50.9777 18.1522 43.267 8.34916 37.6256 12.1178C31.9842 15.8864 35.6604 23.3659 35.6604 23.3659H50.9777V18.1522Z" stroke="black" stroke-width="1.68661" stroke-linecap="round" stroke-linejoin="round"/>
<path d="M35.6602 23.3544C35.6602 23.3544 35.9145 18.4182 39.5097 18.1523C43.1049 17.8748 50.9774 23.3544 50.9774 23.3544H35.6602Z" fill="#CE8900"/>
<path d="M72.9872 23.3544C72.9872 23.3544 72.7329 18.4182 69.1377 18.1523C65.5424 17.8748 57.6699 23.3544 57.6699 23.3544H72.9872Z" fill="#CE8900"/>
<path d="M35.6602 23.3544C35.6602 23.3544 35.9145 18.4182 39.5097 18.1523C43.1049 17.8748 50.9774 23.3544 50.9774 23.3544H35.6602Z" stroke="black" stroke-width="1.68661" stroke-linecap="round" stroke-linejoin="round"/>
<path d="M57.6699 18.1522C57.6699 18.1522 65.3806 8.34916 71.022 12.1178C76.6634 15.8864 72.9872 23.3659 72.9872 23.3659H57.6699V18.1522Z" stroke="black" stroke-width="1.68661" stroke-linecap="round" stroke-linejoin="round"/>
<path d="M72.9872 23.3544C72.9872 23.3544 72.7329 18.4182 69.1377 18.1523C65.5424 17.8748 57.6699 23.3544 57.6699 23.3544H72.9872Z" stroke="black" stroke-width="1.68661" stroke-linecap="round" stroke-linejoin="round"/>
<path d="M18.9585 7.53218C18.6655 6.38579 15.4829 5.67281 11.8534 5.94292C8.22389 6.21303 5.52101 7.36257 5.81767 8.50897C6.11433 9.65536 9.29334 10.3683 12.9228 10.0982C16.5523 9.82808 19.2552 8.67857 18.9585 7.53218Z" fill="white"/>
<path d="M23.5496 5.20177C20.9382 5.21119 18.9166 5.84249 19.0411 6.61513C19.162 7.38462 21.3814 8.00337 23.9927 7.99394C26.6041 7.98452 28.6257 7.35322 28.5012 6.58058C28.3803 5.81109 26.1609 5.19234 23.5496 5.20177Z" fill="white"/>
<defs>
<linearGradient id="paint0_linear_3848_256" x1="144.694" y1="-2.17146e-06" x2="144.694" y2="82.3517" gradientUnits="userSpaceOnUse">
<stop stop-color="#F7F363"/>
<stop offset="1" stop-color="#EAA00E"/>
</linearGradient>
<linearGradient id="paint1_linear_3848_256" x1="144.694" y1="2.80224" x2="144.694" y2="78.9188" gradientUnits="userSpaceOnUse">
<stop stop-color="#F7F363"/>
<stop offset="1" stop-color="#EAA00E"/>
</linearGradient>
</defs>
</svg>
