<svg width="290" height="73" viewBox="0 0 290 73" fill="none" xmlns="http://www.w3.org/2000/svg">
<rect x="1.33154" y="1.33154" width="286.726" height="70.199" rx="8.43311" fill="url(#paint0_linear_3790_621)" stroke="#9F542B" stroke-width="2.66309"/>
<path d="M18.958 7.5312C18.665 6.38481 15.4824 5.67183 11.8529 5.94194C8.2234 6.21205 5.52053 7.3616 5.81718 8.50799C6.11384 9.65438 9.29286 10.3673 12.9223 10.0972C16.5518 9.82711 19.2547 8.6776 18.958 7.5312Z" fill="white"/>
<path d="M23.5491 5.20128C20.9378 5.2107 18.9161 5.842 19.0406 6.61464C19.1615 7.38414 21.3809 8.00288 23.9922 7.99346C26.6036 7.98403 28.6252 7.35273 28.5007 6.58009C28.3799 5.8106 26.1604 5.19186 23.5491 5.20128Z" fill="white"/>
<defs>
<linearGradient id="paint0_linear_3790_621" x1="144.694" y1="-2.17146e-06" x2="144.694" y2="82.3517" gradientUnits="userSpaceOnUse">
<stop stop-color="#F7F363"/>
<stop offset="1" stop-color="#EAA00E"/>
</linearGradient>
</defs>
</svg>
