<svg width="36" height="64" viewBox="0 0 36 64" fill="none" xmlns="http://www.w3.org/2000/svg">
<g opacity="0.58">
<path d="M17.5971 62.7738C15.8902 59.9942 0.333008 34.4959 0.333008 25.4975C0.333008 15.9646 8.06717 8.19574 17.5971 8.19574C27.127 8.19574 34.8611 15.9468 34.8611 25.4975C34.8611 34.5137 19.3217 60.012 17.5971 62.7738Z" fill="black"/>
<path d="M17.5971 8.37413C27.0203 8.37413 34.6833 16.0539 34.6833 25.4977C34.6833 34.2466 19.9085 58.6758 17.5971 62.4355C15.2858 58.658 0.510866 34.2288 0.510866 25.4977C0.528646 16.0539 8.19169 8.37413 17.5971 8.37413ZM17.5971 8.01776C7.96056 8.01776 0.155273 15.8401 0.155273 25.4977C0.155273 35.1553 17.5971 63.1126 17.5971 63.1126C17.5971 63.1126 35.0389 35.1375 35.0389 25.4977C35.0389 15.8401 27.2337 8.01776 17.5971 8.01776Z" fill="black"/>
</g>
<path d="M17.5971 54.7565C15.8902 51.9769 0.333008 26.4786 0.333008 17.4802C0.333008 7.94733 8.06717 0.178467 17.5971 0.178467C27.127 0.178467 34.8611 7.92951 34.8611 17.4802C34.8611 26.4786 19.3217 51.9769 17.5971 54.7565Z" fill="url(#paint0_radial_732_1215)"/>
<path d="M17.5971 0.35637C27.0203 0.35637 34.6833 8.03614 34.6833 17.48C34.6833 26.2288 19.9085 50.658 17.5971 54.4177C15.2858 50.6402 0.510866 26.211 0.510866 17.48C0.528646 8.03614 8.19169 0.35637 17.5971 0.35637ZM17.5971 0C7.96056 0 0.155273 7.82232 0.155273 17.48C0.155273 27.1376 17.5971 55.0948 17.5971 55.0948C17.5971 55.0948 35.0389 27.1198 35.0389 17.48C35.0389 7.82232 27.2337 0 17.5971 0Z" fill="#C1272D"/>
<path opacity="0.28" d="M17.8641 25.0168C22.4694 25.0168 26.2027 21.2753 26.2027 16.6599C26.2027 12.0445 22.4694 8.30304 17.8641 8.30304C13.2588 8.30304 9.52539 12.0445 9.52539 16.6599C9.52539 21.2753 13.2588 25.0168 17.8641 25.0168Z" fill="#E34508"/>
<path d="M17.8644 22.8065C21.2522 22.8065 23.9984 20.0542 23.9984 16.6591C23.9984 13.264 21.2522 10.5117 17.8644 10.5117C14.4767 10.5117 11.7305 13.264 11.7305 16.6591C11.7305 20.0542 14.4767 22.8065 17.8644 22.8065Z" fill="url(#paint1_radial_732_1215)"/>
<path d="M15.3388 15.0381C15.9084 15.0381 16.37 14.5754 16.37 14.0046C16.37 13.4338 15.9084 12.9711 15.3388 12.9711C14.7693 12.9711 14.3076 13.4338 14.3076 14.0046C14.3076 14.5754 14.7693 15.0381 15.3388 15.0381Z" fill="white"/>
<defs>
<radialGradient id="paint0_radial_732_1215" cx="0" cy="0" r="1" gradientUnits="userSpaceOnUse" gradientTransform="translate(12.8502 11.8329) scale(28.3783 28.4403)">
<stop stop-color="#FAF537"/>
<stop offset="1" stop-color="#FFD20A"/>
</radialGradient>
<radialGradient id="paint1_radial_732_1215" cx="0" cy="0" r="1" gradientUnits="userSpaceOnUse" gradientTransform="translate(16.1599 15.0175) scale(9.94144 9.96316)">
<stop stop-color="#FF551D"/>
<stop offset="1" stop-color="#D84511"/>
</radialGradient>
</defs>
</svg>
