<svg width="58" height="58" viewBox="0 0 58 58" fill="none" xmlns="http://www.w3.org/2000/svg">
<g filter="url(#filter0_b_2949_292)">
<rect width="58" height="58" rx="29" fill="#EB3B2E"/>
<path d="M26.9 36.9357C26.9 38.628 25.0195 40 22.7 40C20.3805 40 18.5 38.628 18.5 36.9357V21.0643C18.5 19.372 20.3805 18 22.7 18C25.0195 18 26.9 19.372 26.9 21.0643V36.9357Z" fill="white"/>
<path d="M39.5 36.9357C39.5 38.628 37.6195 40 35.3 40C32.9805 40 31.1 38.628 31.1 36.9357V21.0643C31.1006 19.372 32.9812 18 35.3 18C37.6195 18 39.5 19.372 39.5 21.0643V36.9357Z" fill="white"/>
</g>
<defs>
<filter id="filter0_b_2949_292" x="-10.9" y="-10.9" width="79.8" height="79.8" filterUnits="userSpaceOnUse" color-interpolation-filters="sRGB">
<feFlood flood-opacity="0" result="BackgroundImageFix"/>
<feGaussianBlur in="BackgroundImageFix" stdDeviation="5.45"/>
<feComposite in2="SourceAlpha" operator="in" result="effect1_backgroundBlur_2949_292"/>
<feBlend mode="normal" in="SourceGraphic" in2="effect1_backgroundBlur_2949_292" result="shape"/>
</filter>
</defs>
</svg>
