<svg width="258" height="258" viewBox="0 0 258 258" fill="none" xmlns="http://www.w3.org/2000/svg">
<rect width="258" height="258" fill="#7B4C97"/>
<path fill-rule="evenodd" clip-rule="evenodd" d="M124.887 36.0928C107.931 36.8635 91.9009 41.7417 78.5645 49.9207C75.9101 51.5486 73.7036 53.1281 71.3572 54.728C70.1475 55.553 69.0155 56.4769 67.9213 57.3067L58.3471 66.0041C51.1338 73.7717 44.5538 82.8119 39.1765 95.1546C36.7229 100.787 34.7559 106.994 33.4232 113.437C32.4368 118.205 30.0046 130.768 32.4934 134.532C34.0581 136.899 38.6097 137.367 40.9112 135.197C42.9967 133.231 42.5833 128.703 42.9189 125.171C43.5649 118.373 45.0992 111.154 47.2348 105.228C51.0968 94.5107 55.6125 86.7538 62.3795 78.2967C66.4299 73.2346 74.474 66.0096 79.7715 62.3971C84.126 59.4278 88.4947 57.0471 93.4141 54.7567C120.101 42.331 155.078 45.6159 178.58 63.0524C179.764 63.9307 180.854 64.7878 182.02 65.6204C187.024 69.197 193.293 76.047 197.073 80.8612C217.036 106.29 214.056 131.772 215.455 134.835C216.573 137.28 220.128 139.271 223.328 137.356C226.495 135.46 226.207 132.494 225.979 128.158C224.797 105.641 216.881 88.0513 204.032 71.6499C203.071 70.4222 202.177 69.5668 201.24 68.4363C192.674 58.1006 178.339 48.4936 165.782 43.2998C153.771 38.3318 139.417 35.4326 124.887 36.0931L124.887 36.0928Z" fill="white"/>
<path fill-rule="evenodd" clip-rule="evenodd" d="M178.426 208.017C178.88 216.498 187.59 224.197 197.262 221.186C201.505 219.864 204.611 216.927 206.332 213.493C208.413 209.339 207.788 203.48 207.788 198.503V148.43C207.788 143.122 208.036 137.2 207.768 131.967C207.333 123.459 198.623 115.714 188.926 118.738C184.699 120.056 181.569 122.996 179.858 126.429C177.803 130.551 178.399 136.432 178.399 141.419V191.493C178.399 196.811 178.145 202.778 178.426 208.017Z" fill="white"/>
<path fill-rule="evenodd" clip-rule="evenodd" d="M50.7369 208.017C51.1821 216.496 59.9033 224.192 69.5736 221.185C73.8065 219.869 76.9337 216.919 78.6422 213.493C80.6955 209.375 80.0993 203.485 80.0993 198.503V148.429C80.0993 143.127 80.3499 137.192 80.0786 131.967C79.6383 123.479 70.9067 115.722 61.2353 118.738C56.9938 120.061 53.8883 122.993 52.1682 126.43C50.1179 130.526 50.7103 136.447 50.7103 141.419V191.493C50.7103 196.818 50.4611 202.768 50.7366 208.017L50.7369 208.017Z" fill="white"/>
<path fill-rule="evenodd" clip-rule="evenodd" d="M92.2055 170.962C91.6249 170.343 91.8402 170.536 90.6965 170.539L85.9594 170.507L85.939 174.306L89.8511 174.325C90.6824 175.216 89.1056 173.611 90.1477 174.968L96.4135 185.017C96.876 185.864 97.7311 187.469 98.5523 188.18L104.701 163.772L108.261 189.486C109.209 188.197 112.9 176.615 114.27 173.79L118.228 184.23C118.292 184.407 118.457 184.837 118.518 184.95C118.843 185.552 118.651 185.259 118.997 185.594L122.91 171.879C123.259 170.669 126.218 159.337 127.071 158.321L131.148 205.727L140.888 167.848C141.669 169.245 143.18 174.567 143.758 176.478C144.62 179.331 145.621 182.435 146.571 185.187C147.934 183.037 151.725 168.108 153.078 166.423L157.723 187.086L158.332 186.279C159.383 184.523 162.751 176.257 163.607 175.468C164.061 174.807 163.863 175.01 165.033 175.009L170.206 174.981L170.259 171.277C168.568 171.143 162.523 171.012 161.13 171.388L159.252 175.194C158.506 174.046 154.473 154.786 153.757 151.671C152.94 152.763 147.643 169.699 146.614 172.471L140.436 153.761L133.012 182.17L129.221 136.568C128.451 137.604 121.693 161.943 121.083 164.045C120.354 166.555 119.311 171.018 118.373 173.099C117.139 170.694 115.412 164.011 114.213 162.468L110.002 173.419L105.745 142.979C104.996 144.585 97.2562 176.851 97.0402 178.092C96.5791 177.755 96.9285 178.059 96.5501 177.659C96.5331 177.641 96.2107 177.236 96.191 177.208L93.3592 172.542C92.574 171.285 92.8097 171.065 92.2042 170.961L92.2055 170.962Z" fill="white"/>
<path fill-rule="evenodd" clip-rule="evenodd" d="M44.9456 192.243C45.6037 189.777 45.1779 177.695 45.1779 174.217C45.1779 170.868 45.5359 149.528 44.8156 147.233C42.3866 139.491 31.4063 139.864 29.3512 147.638C28.7536 149.899 29.0996 178.866 29.0996 183.731C29.0996 190.218 28.6043 195.101 33.5986 197.51C38.9237 200.078 43.8054 196.517 44.9456 192.243Z" fill="white"/>
<path fill-rule="evenodd" clip-rule="evenodd" d="M213.443 191.743C214.212 196.169 219.208 199.94 224.551 197.666C229.684 195.48 229.394 190.87 229.394 184.482C229.394 181.603 229.623 150.259 229.277 148.237C228.526 143.846 223.583 139.99 218.193 142.236C216.234 143.052 214.56 144.779 213.805 146.86C213.016 149.036 213.316 152.965 213.316 155.44C213.316 158.374 213.082 189.667 213.443 191.743L213.443 191.743Z" fill="white"/>
</svg>
