<svg width="21" height="24" viewBox="0 0 21 24" fill="none" xmlns="http://www.w3.org/2000/svg">
<g clip-path="url(#clip0_1015_410)">
<path d="M16.2773 22.4758V23.9645H3.76147V22.4758L5.60052 20.0495C6.94306 20.6753 8.44026 21.0246 10.0191 21.0246C11.5982 21.0246 13.0954 20.6753 14.4379 20.0493L16.2773 22.4758H16.2773Z" fill="white"/>
<path d="M10.0193 1.25419C9.76785 1.25419 9.56441 1.05063 9.56441 0.799519C9.56441 0.548391 9.76784 0.344618 10.0193 0.344618C10.2704 0.344618 10.4742 0.548405 10.4742 0.799519C10.4742 1.05065 10.2703 1.25419 10.0193 1.25419ZM10.8466 0.566148C10.7688 0.250639 10.4372 0 10.019 0C9.60079 0 9.26915 0.250654 9.19143 0.566148C9.16551 0.67266 9.16799 0.786266 9.20603 0.900103L9.89992 2.98033C9.91673 3.03075 9.96771 3.05608 10.019 3.05608C10.0704 3.05608 10.1212 3.03075 10.1384 2.98033L10.832 0.900103C10.87 0.786252 10.8728 0.672415 10.8466 0.566148Z" fill="white"/>
<path d="M17.2364 10.5483C17.236 9.44791 16.9905 8.38533 16.5266 7.42233L18.5505 6.44758C19.15 7.68869 19.4864 9.08005 19.4868 10.5483H17.2364ZM15.9228 17.9486L14.5223 16.1924C14.7306 16.0256 14.9311 15.8466 15.1226 15.6553C15.7051 15.0728 16.1752 14.4082 16.5233 13.6878L18.5472 14.6626C17.9266 15.945 17.0248 17.0672 15.9228 17.9486ZM10.0194 20.0194C9.29652 20.0194 8.5927 19.9382 7.91593 19.7838L8.41637 17.5915C8.93631 17.7087 9.47305 17.7691 10.0191 17.7691C10.5654 17.7691 11.1023 17.7087 11.6225 17.5913L12.123 19.7839C11.4463 19.9382 10.7421 20.0195 10.0194 20.0195V20.0194ZM1.49125 14.6627L3.51512 13.6881C3.86313 14.4084 4.33327 15.0728 4.91558 15.6553C5.10722 15.8468 5.30803 16.0259 5.51649 16.1929L4.11623 17.9488C3.01378 17.0676 2.11204 15.9452 1.49122 14.6627H1.49125ZM0.551448 10.5483C0.552009 9.07977 0.888339 7.68841 1.48794 6.44703L3.51199 7.42172C3.04781 8.38486 2.8022 9.44765 2.80171 10.5483H0.551448ZM7.90903 1.321L8.40952 3.51364C7.3566 3.75222 6.37315 4.22535 5.5218 4.9063L4.12148 3.15057C5.21343 2.27815 6.50197 1.64242 7.90903 1.321ZM10.0191 17.4108C6.237 17.4108 3.16005 14.3337 3.16005 10.5517C3.16005 6.76962 6.237 3.69257 10.0191 3.69257C13.8012 3.69257 16.8781 6.76962 16.8781 10.5517C16.8781 14.3337 13.8013 17.4108 10.0191 17.4108ZM15.9172 3.1508L14.517 4.90677C13.6657 4.2256 12.6823 3.75246 11.6294 3.51365L12.1299 1.32147C13.5366 1.64242 14.8252 2.27839 15.9172 3.1508H15.9172ZM19.2511 6.65158C18.7462 5.45847 18.0239 4.38724 17.1039 3.467C16.1837 2.54701 15.1122 1.82465 13.9193 1.32003C13.0167 0.938505 12.0733 0.69424 11.1031 0.590332C11.1214 0.718846 11.11 0.850915 11.0675 0.978494L10.3735 3.05872C10.3248 3.2057 10.1822 3.3044 10.0191 3.3044C9.85587 3.3044 9.71334 3.2057 9.66453 3.05872L8.97095 0.978494C8.92848 0.850915 8.91692 0.718846 8.93538 0.590332C7.96526 0.694225 7.02161 0.93849 6.11935 1.32003C4.9262 1.82465 3.85463 2.54701 2.93471 3.467C2.01448 4.38724 1.29221 5.45847 0.787439 6.65158C0.26505 7.88718 0.00012207 9.1991 0.00012207 10.5516C0.00012207 11.9041 0.26505 13.2162 0.787439 14.4516C1.29221 15.6447 2.01449 16.7163 2.93471 17.6363C3.85463 18.5564 4.9262 19.2788 6.11935 19.7835C7.35466 20.3059 8.66687 20.5708 10.0194 20.5708C11.3718 20.5708 12.6838 20.3059 13.9193 19.7835C15.1122 19.2788 16.1837 18.5564 17.1039 17.6363C18.0239 16.7163 18.7462 15.6447 19.2511 14.4516C19.7735 13.2162 20.0383 11.9041 20.0383 10.5516C20.0383 9.19909 19.7735 7.88716 19.2511 6.65158Z" fill="white"/>
<path d="M11.2824 8.97366V8.97341C11.2808 8.97204 11.2787 8.97037 11.2768 8.96926V8.96897C11.0447 8.78401 10.7716 8.64919 10.473 8.58055H10.4726C10.4706 8.57999 10.4683 8.57946 10.466 8.57919V8.5789C10.3221 8.54638 10.1728 8.5293 10.0192 8.5293C9.86593 8.5293 9.71651 8.54638 9.57288 8.5789H9.57261C9.57041 8.57947 9.56821 8.57999 9.56601 8.58055C9.26745 8.64893 8.9937 8.78401 8.76157 8.96871V8.96897C8.75993 8.97008 8.75798 8.97146 8.75636 8.97286V8.97312H8.75607C8.52227 9.16057 8.33095 9.39876 8.19891 9.67115C8.19781 9.67306 8.19671 9.675 8.19588 9.6772C8.0688 9.94075 7.99739 10.2363 7.99683 10.5481V10.5549C7.99739 10.8668 8.0688 11.162 8.19588 11.4258C8.1967 11.4278 8.19779 11.43 8.19891 11.4322C8.33095 11.7043 8.52255 11.9424 8.75636 12.1296V12.1299C8.75827 12.1313 8.76018 12.1329 8.76184 12.1341V12.1343C8.99397 12.319 9.26745 12.4539 9.56601 12.5225C9.56821 12.523 9.57041 12.5235 9.57261 12.524H9.57288C9.71651 12.5567 9.86593 12.5737 10.0192 12.5737C10.1728 12.5737 10.3221 12.5567 10.466 12.524V12.5239C10.4683 12.5235 10.4706 12.523 10.4726 12.5225H10.473C10.7716 12.4539 11.0447 12.3187 11.2768 12.1338C11.2787 12.1324 11.2804 12.131 11.282 12.1296C11.282 12.1296 11.2824 12.1296 11.2824 12.1294C11.5162 11.9422 11.7075 11.704 11.8395 11.4319C11.8403 11.4297 11.8414 11.4278 11.8426 11.4258V11.4256C11.9693 11.162 12.0407 10.8665 12.0414 10.5549V10.5481C12.0407 10.2363 11.9697 9.94102 11.8426 9.67748C11.8414 9.67525 11.8407 9.67306 11.8395 9.67113C11.7075 9.39904 11.5162 9.16085 11.2824 8.97365L11.2824 8.97366Z" fill="white"/>
<path d="M10.019 12.9862C8.67655 12.9862 7.58439 11.894 7.58439 10.5516C7.58439 9.20911 8.67655 8.11692 10.019 8.11692C11.3615 8.11692 12.4536 9.20911 12.4536 10.5516C12.4536 11.894 11.3614 12.9862 10.019 12.9862ZM10.019 7.75854C8.47895 7.75854 7.22601 9.01148 7.22601 10.5516C7.22601 12.0917 8.47895 13.3446 10.019 13.3446C11.559 13.3446 12.812 12.0917 12.812 10.5516C12.812 9.01148 11.559 7.75854 10.019 7.75854Z" fill="white"/>
</g>
<rect x="0.0065103" y="0.0065103" width="20.0252" height="23.9514" stroke="white" stroke-width="0.0130206"/>
<defs>
<clipPath id="clip0_1015_410">
<rect width="20.0383" height="23.9644" fill="white"/>
</clipPath>
</defs>
</svg>
