<svg width="21" height="24" viewBox="0 0 21 24" fill="none" xmlns="http://www.w3.org/2000/svg">
<g clip-path="url(#clip0_551_337)">
<path d="M16.2773 22.4758V23.9645H3.76147V22.4758L5.60052 20.0494C6.94306 20.6753 8.44026 21.0246 10.0191 21.0246C11.5982 21.0246 13.0954 20.6753 14.4379 20.0493L16.2773 22.4758H16.2773Z" fill="black"/>
<path d="M10.0193 1.25419C9.76785 1.25419 9.56441 1.05063 9.56441 0.799519C9.56441 0.548391 9.76784 0.344618 10.0193 0.344618C10.2704 0.344618 10.4742 0.548405 10.4742 0.799519C10.4742 1.05065 10.2703 1.25419 10.0193 1.25419ZM10.8466 0.566148C10.7688 0.250639 10.4372 0 10.019 0C9.60079 0 9.26915 0.250654 9.19143 0.566148C9.16551 0.67266 9.16799 0.786266 9.20603 0.900103L9.89992 2.98033C9.91673 3.03075 9.96771 3.05608 10.019 3.05608C10.0704 3.05608 10.1212 3.03075 10.1384 2.98033L10.832 0.900103C10.87 0.786252 10.8728 0.672415 10.8466 0.566148Z" fill="black"/>
<path d="M17.2364 10.5482C17.236 9.44785 16.9905 8.38527 16.5266 7.42227L18.5505 6.44752C19.15 7.68863 19.4864 9.07999 19.4868 10.5482H17.2364ZM15.9228 17.9486L14.5223 16.1924C14.7306 16.0255 14.9311 15.8465 15.1226 15.6552C15.7051 15.0728 16.1752 14.4082 16.5233 13.6877L18.5472 14.6625C17.9266 15.945 17.0248 17.0672 15.9228 17.9486ZM10.0194 20.0194C9.29652 20.0194 8.5927 19.9381 7.91593 19.7838L8.41637 17.5915C8.93631 17.7087 9.47305 17.7691 10.0191 17.7691C10.5654 17.7691 11.1023 17.7087 11.6225 17.5913L12.123 19.7838C11.4463 19.9381 10.7421 20.0194 10.0194 20.0194V20.0194ZM1.49125 14.6627L3.51512 13.6881C3.86313 14.4084 4.33327 15.0728 4.91558 15.6552C5.10722 15.8467 5.30803 16.0259 5.51649 16.1929L4.11623 17.9487C3.01378 17.0675 2.11204 15.9451 1.49122 14.6627H1.49125ZM0.551448 10.5482C0.552009 9.07971 0.888339 7.68835 1.48794 6.44697L3.51199 7.42166C3.04781 8.3848 2.8022 9.44759 2.80171 10.5482H0.551448ZM7.90903 1.32094L8.40952 3.51358C7.3566 3.75216 6.37315 4.22529 5.5218 4.90624L4.12148 3.15051C5.21343 2.27809 6.50197 1.64236 7.90903 1.32094ZM10.0191 17.4107C6.237 17.4107 3.16005 14.3337 3.16005 10.5516C3.16005 6.76956 6.237 3.69251 10.0191 3.69251C13.8012 3.69251 16.8781 6.76956 16.8781 10.5516C16.8781 14.3337 13.8013 17.4107 10.0191 17.4107ZM15.9172 3.15074L14.517 4.90671C13.6657 4.22554 12.6823 3.7524 11.6294 3.51359L12.1299 1.32141C13.5366 1.64236 14.8252 2.27832 15.9172 3.15074H15.9172ZM19.2511 6.65152C18.7462 5.45841 18.0239 4.38717 17.1039 3.46694C16.1837 2.54695 15.1122 1.82459 13.9193 1.31997C13.0167 0.938444 12.0733 0.694179 11.1031 0.590271C11.1214 0.718785 11.11 0.850854 11.0675 0.978433L10.3735 3.05866C10.3248 3.20564 10.1822 3.30434 10.0191 3.30434C9.85587 3.30434 9.71334 3.20564 9.66453 3.05866L8.97095 0.978433C8.92848 0.850854 8.91692 0.718785 8.93538 0.590271C7.96526 0.694164 7.02161 0.938429 6.11935 1.31997C4.9262 1.82459 3.85463 2.54695 2.93471 3.46694C2.01448 4.38717 1.29221 5.45841 0.787439 6.65152C0.26505 7.88712 0.00012207 9.19904 0.00012207 10.5515C0.00012207 11.904 0.26505 13.2162 0.787439 14.4516C1.29221 15.6446 2.01449 16.7163 2.93471 17.6362C3.85463 18.5564 4.9262 19.2787 6.11935 19.7834C7.35466 20.3058 8.66687 20.5707 10.0194 20.5707C11.3718 20.5707 12.6838 20.3058 13.9193 19.7834C15.1122 19.2787 16.1837 18.5564 17.1039 17.6362C18.0239 16.7163 18.7462 15.6446 19.2511 14.4516C19.7735 13.2162 20.0383 11.904 20.0383 10.5515C20.0383 9.19903 19.7735 7.8871 19.2511 6.65152Z" fill="black"/>
<path d="M11.2824 8.97379V8.97353C11.2808 8.97216 11.2787 8.97049 11.2768 8.96938V8.9691C11.0447 8.78413 10.7716 8.64931 10.473 8.58068H10.4726C10.4706 8.58011 10.4683 8.57958 10.466 8.57931V8.57902C10.3221 8.5465 10.1728 8.52942 10.0192 8.52942C9.86593 8.52942 9.71651 8.5465 9.57288 8.57902H9.57261C9.57041 8.5796 9.56821 8.58011 9.56601 8.58068C9.26745 8.64905 8.9937 8.78413 8.76157 8.96884V8.9691C8.75993 8.9702 8.75798 8.97158 8.75636 8.97298V8.97324H8.75607C8.52227 9.16069 8.33095 9.39889 8.19891 9.67127C8.19781 9.67318 8.19671 9.67513 8.19588 9.67733C8.0688 9.94087 7.99739 10.2364 7.99683 10.5482V10.5551C7.99739 10.8669 8.0688 11.1621 8.19588 11.4259C8.1967 11.4279 8.19779 11.4301 8.19891 11.4323C8.33095 11.7044 8.52255 11.9426 8.75636 12.1297V12.1301C8.75827 12.1315 8.76018 12.133 8.76184 12.1342V12.1344C8.99397 12.3191 9.26745 12.454 9.56601 12.5226C9.56821 12.5231 9.57041 12.5236 9.57261 12.5242H9.57288C9.71651 12.5568 9.86593 12.5738 10.0192 12.5738C10.1728 12.5738 10.3221 12.5568 10.466 12.5242V12.524C10.4683 12.5236 10.4706 12.5231 10.4726 12.5226H10.473C10.7716 12.454 11.0447 12.3188 11.2768 12.1339C11.2787 12.1325 11.2804 12.1311 11.282 12.1297C11.282 12.1297 11.2824 12.1297 11.2824 12.1295C11.5162 11.9423 11.7075 11.7041 11.8395 11.432C11.8403 11.4298 11.8414 11.4279 11.8426 11.4259V11.4257C11.9693 11.1621 12.0407 10.8666 12.0414 10.5551V10.5482C12.0407 10.2364 11.9697 9.94115 11.8426 9.6776C11.8414 9.67537 11.8407 9.67318 11.8395 9.67125C11.7075 9.39916 11.5162 9.16097 11.2824 8.97377L11.2824 8.97379Z" fill="black"/>
<path d="M10.019 12.9863C8.67655 12.9863 7.58439 11.8941 7.58439 10.5516C7.58439 9.20917 8.67655 8.11698 10.019 8.11698C11.3615 8.11698 12.4536 9.20917 12.4536 10.5516C12.4536 11.8941 11.3614 12.9863 10.019 12.9863ZM10.019 7.75861C8.47895 7.75861 7.22601 9.01154 7.22601 10.5516C7.22601 12.0917 8.47895 13.3446 10.019 13.3446C11.559 13.3446 12.812 12.0917 12.812 10.5516C12.812 9.01154 11.559 7.75861 10.019 7.75861Z" fill="black"/>
</g>
<defs>
<clipPath id="clip0_551_337">
<rect width="20.0383" height="23.9644" fill="white"/>
</clipPath>
</defs>
</svg>
