<svg width="31" height="31" viewBox="0 0 31 31" fill="none" xmlns="http://www.w3.org/2000/svg">
<path d="M31 27.5556V3.44444C31 1.55 29.45 0 27.5556 0H3.44444C1.55 0 0 1.55 0 3.44444V27.5556C0 29.45 1.55 31 3.44444 31H27.5556C29.45 31 31 29.45 31 27.5556ZM10.1611 18.91L13.7778 23.2672L19.1167 16.3956C19.4611 15.9478 20.15 15.9478 20.4944 16.4128L26.5394 24.4728C26.97 25.0411 26.5567 25.8506 25.8506 25.8506H5.20111C4.47778 25.8506 4.08167 25.0239 4.52944 24.4556L8.81778 18.9444C9.145 18.4967 9.79944 18.4794 10.1611 18.91Z" fill="black"/>
</svg>
