<svg width="31" height="31" viewBox="0 0 31 31" fill="none" xmlns="http://www.w3.org/2000/svg">
<path d="M19.7308 0H11.2678V6.7582H19.7308V0Z" fill="black"/>
<path d="M22.0574 0V6.7582H30.7994C30.0089 2.49557 26.8624 0.0155005 22.0574 0Z" fill="black"/>
<path d="M0 9.08231V21.9942C0 27.6364 3.3635 31 9.0055 31H21.9945C27.6365 31 31 27.6364 31 21.9942V9.08231H0ZM19.282 21.9787L16.058 23.8388C15.376 24.2263 14.7095 24.4278 14.0895 24.4278C13.6245 24.4278 13.206 24.3193 12.8185 24.1023C11.9195 23.5908 11.4235 22.5367 11.4235 21.1727V17.4526C11.4235 16.0885 11.9195 15.0345 12.8185 14.523C13.7175 13.996 14.8645 14.089 16.058 14.7865L19.282 16.6466C20.4755 17.3286 21.1265 18.2896 21.1265 19.3281C21.1265 20.3667 20.46 21.2812 19.282 21.9787Z" fill="black"/>
<path d="M8.94195 0C4.13695 0.0155005 0.990451 2.49558 0.199951 6.7582H8.94195V0Z" fill="black"/>
</svg>
